<svg width="190" height="51" viewBox="0 0 190 51" fill="none" xmlns="http://www.w3.org/2000/svg">
<g clip-path="url(#clip0_87_9640)">
<path d="M78.6283 19.6329C78.1135 17.6278 76.8157 16.1606 74.2781 16.1606C70.5333 16.1606 68.9672 19.4608 68.9672 22.81C68.9672 26.1591 70.5333 29.4612 74.2781 29.4612C76.997 29.4612 78.4869 27.4325 78.7298 24.8894H81.7152C81.4705 29.0699 78.5105 31.9536 74.2835 31.9536C69.0469 31.9536 65.9148 27.7966 65.9148 22.8082C65.9148 17.8198 69.0361 13.6555 74.2727 13.6555C78.2114 13.6791 81.3182 15.8563 81.6862 19.622L78.6283 19.6329Z" fill="black"/>
<path d="M83.5223 25.1973C83.5223 21.3337 85.8461 18.5479 89.9081 18.5479C93.9701 18.5479 96.2939 21.3337 96.2939 25.1973C96.2939 29.0608 93.9701 31.8738 89.9081 31.8738C85.8461 31.8738 83.5223 29.0862 83.5223 25.1973ZM93.5043 25.1973C93.5043 23.0237 92.4041 20.7486 89.9081 20.7486C87.4122 20.7486 86.3119 23.0218 86.3119 25.1973C86.3119 27.3727 87.4122 29.6731 89.9081 29.6731C92.4041 29.6731 93.5043 27.398 93.5043 25.1973Z" fill="black"/>
<path d="M98.6919 14.072H101.482V16.7129H98.6919V14.072ZM98.6919 18.8902H101.482V31.5314H98.6919V18.8902Z" fill="black"/>
<path d="M104.516 18.8904H107.159V20.7488L107.208 20.7977C107.608 20.1093 108.184 19.5386 108.875 19.1433C109.567 18.748 110.351 18.5421 111.148 18.5462C113.889 18.5462 115.625 20.0134 115.625 22.8481V31.5298H112.836V23.5835C112.787 21.6037 112.004 20.7488 110.365 20.7488C108.505 20.7488 107.305 22.2141 107.305 24.0726V31.5316H104.516V18.8904Z" fill="black"/>
<path d="M134.197 31.5315H132.239L131.775 29.4775C130.144 31.3359 128.643 31.9463 126.519 31.9463C121.286 31.95 118.147 27.7839 118.147 22.8009C118.147 17.818 121.286 13.6555 126.515 13.6555C130.322 13.6555 133.537 15.6842 134.001 19.622H131.016C130.722 17.3235 128.718 16.1497 126.515 16.1497C122.77 16.1497 121.204 19.45 121.204 22.7991C121.204 26.1483 122.77 29.4503 126.515 29.4503C129.646 29.4992 131.359 27.6173 131.409 24.6575H126.76V22.3372H134.192L134.197 31.5315Z" fill="black"/>
<path d="M139.312 25.9308C139.312 27.9124 140.389 29.6731 142.713 29.6731C144.328 29.6731 145.306 28.963 145.794 27.5701H148.439C147.828 30.3324 145.479 31.8738 142.713 31.8738C138.75 31.8738 136.523 29.1097 136.523 25.2226C136.523 21.6271 138.879 18.5479 142.64 18.5479C146.628 18.5479 149.075 22.1415 148.611 25.9308H139.312ZM145.821 24.0978C145.723 22.3372 144.523 20.7486 142.64 20.7486C140.706 20.7486 139.387 22.214 139.312 24.0978H145.821Z" fill="black"/>
<path d="M159.28 23.1197C159.059 21.5782 157.933 20.7486 156.392 20.7486C154.942 20.7486 152.918 21.5058 152.918 25.344C152.918 27.4469 153.847 29.6731 156.269 29.6731C157.884 29.6731 159.01 28.5971 159.28 26.7876H162.069C161.555 30.0643 159.532 31.8738 156.269 31.8738C152.305 31.8738 150.128 29.0608 150.128 25.344C150.128 21.5293 152.209 18.5479 156.367 18.5479C159.303 18.5479 161.805 20.015 162.069 23.1197H159.28Z" fill="black"/>
<path d="M164.426 14.072H167.215V23.9999L172.256 18.8902H175.682L170.837 23.5344L176.146 31.5314H172.738L168.872 25.3928L167.208 27.0067V31.5351H164.426V14.072Z" fill="black"/>
<path d="M176.898 25.1973C176.898 21.3337 179.222 18.5479 183.284 18.5479C187.346 18.5479 189.672 21.3337 189.672 25.1973C189.672 29.0608 187.346 31.8738 183.284 31.8738C179.222 31.8738 176.898 29.0862 176.898 25.1973ZM186.882 25.1973C186.882 23.0237 185.78 20.7486 183.284 20.7486C180.788 20.7486 179.688 23.0218 179.688 25.1973C179.688 27.3727 180.788 29.6731 183.284 29.6731C185.78 29.6731 186.882 27.398 186.882 25.1973Z" fill="black"/>
<path d="M50.4135 24.8859C50.4353 29.8297 48.9896 34.669 46.2591 38.7917C43.5287 42.9144 39.6362 46.1355 35.0738 48.0475C30.5115 49.9595 25.4842 50.4766 20.6277 49.5334C15.7713 48.5902 11.3038 46.229 7.79018 42.7486C4.27659 39.2681 1.87473 34.8246 0.888319 29.98C-0.0980873 25.1353 0.375271 20.1072 2.24853 15.5315C4.1218 10.9557 7.31082 7.03779 11.4123 4.27321C15.5139 1.50863 20.3436 0.0215367 25.2909 -6.48732e-06C31.9247 -0.0288937 38.2983 2.57673 43.0096 7.2437C47.721 11.9107 50.3842 18.2567 50.4135 24.8859Z" fill="#8DC63F"/>
<path d="M48.5375 24.895C48.5582 29.4674 47.2217 33.9431 44.6969 37.7564C42.1721 41.5696 38.5724 44.5491 34.3531 46.3179C30.1338 48.0868 25.4844 48.5656 20.9927 47.6938C16.5011 46.822 12.369 44.6388 9.11909 41.4203C5.86914 38.2017 3.64726 34.0924 2.73444 29.6119C1.82161 25.1314 2.25884 20.4811 3.99083 16.249C5.72282 12.0168 8.67178 8.39299 12.4648 5.8357C16.2578 3.2784 20.7245 1.90253 25.3 1.88206C31.4351 1.8551 37.3297 4.26437 41.6875 8.57999C46.0452 12.8956 48.5092 18.7642 48.5375 24.895Z" fill="#F9E988"/>
<path d="M25.8256 3.37996C27.2962 3.11911 28.8013 3.11911 30.2719 3.37996C31.7568 3.61491 33.1921 4.09545 34.5188 4.80186C35.8384 5.52639 36.9785 6.50994 38.1132 7.43191C39.2479 8.35388 40.3771 9.29758 41.452 10.33C42.5492 11.3464 43.5068 12.5037 44.2996 13.7716C45.1159 15.0294 45.7849 16.3768 46.2935 17.7873C47.2596 20.6238 47.5949 23.6796 47.1127 26.594H46.9696C46.4856 23.7049 45.8294 20.9517 44.7944 18.3325C44.3086 17.0136 43.737 15.7278 43.0833 14.4834C42.4013 13.2388 41.6497 12.0336 40.8321 10.8734C40.0006 9.70056 38.9816 8.67247 37.8159 7.8304C36.6414 6.99357 35.291 6.45198 33.9841 5.93756C32.6772 5.42314 31.3812 4.89061 30.0182 4.49936C28.6551 4.10812 27.2703 3.81468 25.8238 3.5303L25.8256 3.37996Z" fill="black"/>
<path d="M37.1344 16.7348C35.4559 16.2494 33.7159 15.5611 31.954 14.8655C31.8525 14.4236 31.461 13.8729 30.6689 13.2009C29.5179 12.2029 27.3555 12.2282 25.4867 12.6702C23.4239 12.1848 21.3866 12.0127 19.4308 12.4891C3.43464 16.8924 12.5049 27.6354 6.63206 38.4346C7.46766 40.2061 16.4745 50.5415 29.507 47.7684C29.507 47.7684 25.0498 37.0652 35.1079 31.9283C43.2664 27.7459 49.161 20.0079 37.1344 16.7348Z" fill="#8BC53F"/>
<path d="M39.1101 23.7647C39.1112 23.9563 39.0554 24.144 38.9497 24.3039C38.8441 24.4639 38.6933 24.5889 38.5165 24.6633C38.3397 24.7376 38.1449 24.7579 37.9566 24.7216C37.7682 24.6852 37.5949 24.5939 37.4586 24.4591C37.3222 24.3244 37.2289 24.1522 37.1904 23.9645C37.1519 23.7767 37.17 23.5817 37.2424 23.4043C37.3148 23.2268 37.4383 23.0747 37.5971 22.9674C37.756 22.86 37.9432 22.8021 38.135 22.801C38.392 22.8001 38.639 22.9009 38.8217 23.0815C39.0045 23.2622 39.1082 23.5078 39.1101 23.7647Z" fill="black"/>
<path d="M25.4867 12.6631C26.6522 12.7464 30.8665 14.1122 31.954 14.8584C31.0477 12.232 27.9971 11.8824 25.4867 12.6631Z" fill="#009345"/>
<path d="M26.596 19.3052C26.5963 20.1895 26.3343 21.0539 25.8429 21.7893C25.3516 22.5247 24.6531 23.098 23.8357 23.4366C23.0183 23.7752 22.1188 23.864 21.2509 23.6917C20.383 23.5194 19.5857 23.0938 18.9599 22.4687C18.3341 21.8436 17.9079 21.047 17.7351 20.1798C17.5623 19.3126 17.6508 18.4137 17.9894 17.5967C18.3279 16.7798 18.9013 16.0815 19.637 15.5902C20.3727 15.0989 21.2376 14.8367 22.1225 14.8367C22.7099 14.8364 23.2915 14.9518 23.8343 15.1763C24.377 15.4008 24.8702 15.7299 25.2856 16.1448C25.701 16.5598 26.0306 17.0525 26.2554 17.5948C26.4802 18.137 26.596 18.7183 26.596 19.3052Z" fill="black"/>
<path d="M25.2692 19.3449C25.2692 19.9668 25.0846 20.5748 24.7389 21.0919C24.3931 21.609 23.9017 22.012 23.3267 22.25C22.7517 22.488 22.119 22.5503 21.5086 22.429C20.8982 22.3076 20.3375 22.0082 19.8975 21.5684C19.4574 21.1286 19.1577 20.5683 19.0363 19.9584C18.9149 19.3484 18.9772 18.7162 19.2154 18.1416C19.4535 17.567 19.8568 17.0759 20.3743 16.7304C20.8918 16.3849 21.5001 16.2004 22.1225 16.2004C22.957 16.2004 23.7574 16.5317 24.3475 17.1214C24.9376 17.7111 25.2692 18.5109 25.2692 19.3449Z" fill="#58595B"/>
<path d="M42.7335 25.7353C39.1083 28.2875 34.9865 30.2238 29.1391 30.2238C26.402 30.2238 25.8474 27.3257 24.0384 28.7421C23.1049 29.4775 19.8132 31.1222 17.2013 30.9972C14.5893 30.8723 10.3551 29.3417 9.17512 23.77C8.70747 29.3417 8.46821 33.4462 6.37466 38.1502C10.5436 44.8213 20.4839 49.9673 29.507 47.7502C28.5373 40.9849 34.4536 34.3591 37.7869 30.9683C39.0558 29.684 41.4665 27.5883 42.7335 25.7317V25.7353Z" fill="#8BC53F"/>
<path d="M42.5921 25.9021C41.4665 26.9273 40.127 27.6863 38.7639 28.3565C37.3843 29.0111 35.946 29.5345 34.4681 29.9196C32.989 30.3018 31.4465 30.5898 29.884 30.4485C28.3216 30.3073 26.7247 29.7765 25.6897 28.6064L25.7386 28.5503C27.0074 29.3726 28.472 29.6624 29.9293 29.7041C31.4065 29.749 32.884 29.6275 34.3339 29.3418C35.7986 29.0354 37.2314 28.5927 38.6135 28.0195C39.9965 27.449 41.365 26.7878 42.5432 25.8459L42.5921 25.9021Z" fill="#58595B"/>
</g>
<defs>
<clipPath id="clip0_87_9640">
<rect width="189.286" height="50" fill="white" transform="translate(0.385849)"/>
</clipPath>
</defs>
</svg>
