<svg width="304" height="51" viewBox="0 0 304 51" fill="none" xmlns="http://www.w3.org/2000/svg">
<g clip-path="url(#clip0_87_9663)">
<path fill-rule="evenodd" clip-rule="evenodd" d="M45.139 29.878C44.2338 30.4293 43.1679 30.4976 42.3576 30.0573C41.3283 29.4976 40.7624 28.1866 40.7624 26.3634V20.9085C40.7624 18.2744 39.6813 16.4 37.8734 15.8939C34.8096 15.0341 32.5055 18.6451 31.6395 20.0012L26.2362 28.4402V18.1256C26.1754 15.7524 25.3753 14.3329 23.8561 13.9049C22.8509 13.622 21.3468 13.7354 19.8859 15.889L7.78024 34.6134C6.15958 31.6497 5.31474 28.3497 5.31911 25C5.31911 13.7207 14.7028 4.54512 26.2362 4.54512C37.7696 4.54512 47.152 13.7207 47.152 25C47.152 25.0195 47.1571 25.0366 47.1583 25.0549C47.1583 25.0744 47.1545 25.0915 47.1558 25.111C47.2647 27.2951 46.5304 29.0329 45.139 29.8793V29.878ZM51.7995 25.0012V25V24.9439L51.7983 24.8878C51.7337 11.1512 40.2927 0 26.2349 0C12.1404 0 0.67157 11.2146 0.67157 25C0.67157 38.7841 12.1404 50 26.2362 50C32.7043 50 38.8773 47.6317 43.616 43.3329C44.5579 42.4793 44.6136 41.0415 43.7401 40.122C43.5345 39.9036 43.2857 39.7269 43.0083 39.6023C42.7309 39.4776 42.4305 39.4076 42.1247 39.3963C41.8188 39.3849 41.5137 39.4324 41.2272 39.5361C40.9407 39.6398 40.6785 39.7975 40.4561 40C36.6151 43.5036 31.526 45.4558 26.2362 45.4549C20.0606 45.4549 14.504 42.822 10.6718 38.6463L21.5886 21.761V29.5451C21.5886 33.2841 23.0939 34.4927 24.3562 34.8463C25.6196 35.2 27.5503 34.9585 29.5772 31.7878L35.5819 22.411C35.7743 22.1085 35.9516 21.8476 36.1136 21.622V26.3634C36.1136 29.8585 37.567 32.6537 40.1003 34.0305C42.3842 35.272 45.2555 35.1598 47.5951 33.7378C50.431 32.0122 51.9591 28.8329 51.7995 25.0012ZM87.391 16.4598C88.005 16.8195 88.5367 17.6195 88.5367 18.3402C88.5367 19.5 87.5138 20.4598 86.368 20.4598C86.0819 20.4598 85.7958 20.3805 85.5502 20.3C84.1994 19.3402 82.4814 18.7 80.6811 18.7C76.4273 18.7 73.4813 22.0598 73.4813 26.2195C73.4813 30.3805 76.4273 33.7 80.6811 33.7C82.808 33.7 84.6906 32.8598 86.1224 31.5805C86.4924 31.3244 86.9354 31.1846 87.391 31.1805C88.5367 31.1805 89.4369 32.0598 89.4369 33.1805C89.4369 33.9 88.9862 34.5402 88.4139 34.9C86.368 36.5805 83.5866 37.7 80.7229 37.7C74.1776 37.7 68.8578 32.5 68.8578 26.1C68.8578 19.7 74.1763 14.5 80.7229 14.5C83.1777 14.5 85.5084 15.2195 87.391 16.4598ZM99.3599 21.3C103.819 21.3 107.583 24.9402 107.583 29.4195C107.583 33.9 103.819 37.7 99.3599 37.7C94.6959 37.7 90.8092 33.9 90.8092 29.4195C90.8092 24.9402 94.6959 21.3 99.3599 21.3ZM99.3181 33.7C101.283 33.7 102.959 31.9 102.959 29.4598C102.959 27.0207 101.283 25.5 99.3181 25.5C97.1912 25.5 95.4314 26.9805 95.4314 29.4598C95.4314 31.9 97.1912 33.7 99.3181 33.7ZM110.387 35.2195V23.7805C110.387 22.5402 111.41 21.5 112.678 21.5C113.947 21.5 115.01 22.5402 115.01 23.7805V35.2195C115.01 36.4598 113.947 37.5 112.678 37.5C111.41 37.5 110.387 36.4598 110.387 35.2195ZM110.02 17.1805C110.02 15.7 111.205 14.5 112.678 14.5C114.191 14.5 115.419 15.7 115.419 17.1805C115.419 18.6195 114.191 19.7805 112.678 19.7805C111.205 19.7805 110.02 18.6195 110.02 17.1805ZM123.87 29.0195V35.2195C123.87 36.4598 122.806 37.5 121.537 37.5C120.269 37.5 119.245 36.4598 119.245 35.2195V23.2598C119.245 22.3 120.064 21.5 121.047 21.5C122.028 21.5 122.806 22.3 122.806 23.2598C124.688 21.5805 126.323 21.3 127.878 21.3C132.502 21.3 134.547 24.6598 134.547 28.4598V35.2195C134.547 36.4598 133.484 37.5 132.215 37.5C130.947 37.5 129.924 36.4598 129.924 35.2195V29.0195C129.924 27.0598 129.678 25.4195 126.774 25.4195C124.728 25.4195 123.869 27.0598 123.869 29.0195H123.87ZM149.584 31.3805C149.052 31.3805 148.685 31.1402 148.398 30.8195L142.997 25.1805V35.2195C142.997 36.4598 141.933 37.5 140.665 37.5C139.396 37.5 138.373 36.4598 138.373 35.2195V15.3415C138.439 15.174 138.558 15.0303 138.712 14.9299C138.866 14.8295 139.048 14.7773 139.234 14.7805C139.642 14.7805 139.969 15.1012 140.215 15.3415L148.807 24.661C149.052 24.9415 149.379 25.1012 149.543 25.1012C149.707 25.1012 150.033 24.9415 150.279 24.6622L158.871 15.3415C159.117 15.1012 159.444 14.7805 159.853 14.7805C160.261 14.7805 160.589 15.0207 160.712 15.3415V35.2195C160.712 36.4598 159.689 37.5 158.421 37.5C157.152 37.5 156.089 36.4598 156.089 35.2195V25.1805L150.689 30.8195C150.402 31.1402 150.033 31.3805 149.584 31.3805ZM171.821 33.7C173.908 33.7 175.666 31.9 175.666 29.4598C175.666 27.0207 173.867 25.4195 171.821 25.4195C169.776 25.4195 168.139 27.0598 168.139 29.4598C168.139 31.8195 169.776 33.7 171.821 33.7ZM176.731 35.7402L176.647 35.2195C175.749 36.939 172.884 37.7 171.043 37.7C166.705 37.7 163.515 33.9 163.515 29.4195C163.515 24.9402 166.788 21.3 171.288 21.3C172.066 21.3 174.643 21.5 176.647 23.7805L176.73 23.2598C176.73 22.3 177.507 21.5 178.49 21.5C179.471 21.5 180.289 22.3 180.289 23.2598V35.7402C180.289 36.7 179.471 37.5 178.488 37.5C177.507 37.5 176.729 36.7 176.729 35.7402H176.731ZM193.117 25.4195H192.627C189.722 25.5805 189.149 27.1805 189.149 29.0195V35.2195C189.149 36.4598 188.086 37.5 186.817 37.5C185.549 37.5 184.526 36.4598 184.526 35.2195V23.2598C184.526 22.3 185.344 21.5 186.326 21.5C187.309 21.5 188.086 22.3 188.086 23.2598C189.804 21.7 191.195 21.3805 192.627 21.3H193.077C194.182 21.3 195.203 22.2195 195.203 23.3805C195.203 24.4598 194.222 25.4195 193.117 25.4195ZM210.936 34.1805C211.141 34.5 211.264 34.8598 211.264 35.2598C211.264 36.4195 210.159 37.5 208.973 37.5C208.155 37.5 207.458 36.9 206.927 36.2598L201.609 30.3V35.2195C201.609 36.4598 200.545 37.5 199.276 37.5C198.008 37.5 196.985 36.4598 196.985 35.2195V17.061C196.985 15.8195 198.008 14.7805 199.276 14.7805C200.545 14.7805 201.608 15.8195 201.608 17.061V28.3805L206.927 22.7C207.458 22.1 208.113 21.5 208.932 21.5C210.078 21.5 211.141 22.5402 211.141 23.7C211.141 24.0598 211.059 24.4195 210.854 24.7402L206.641 29.1793L210.936 34.1793V34.1805ZM220.001 25.5C218.732 25.5 216.686 26.1402 216.686 28.0195H223.355C223.355 26.1 221.228 25.5 220 25.5H220.001ZM226.055 30.8598H216.686C216.686 33.5402 219.345 33.9402 220.531 33.9402C221.392 33.9402 222.619 33.7805 223.56 33.3793C223.846 33.1805 224.337 33.0195 224.746 33.0195C225.769 33.0195 226.627 33.861 226.627 34.861C226.627 35.5402 226.178 36.1402 225.606 36.4598C224.174 37.4598 222.332 37.7 220.573 37.7C215.909 37.7 212.022 35.261 212.022 29.6195C212.022 25.1805 214.395 21.3 219.919 21.3C224.377 21.3 227.773 24.1 227.855 29.1C227.855 30.0598 227.037 30.8598 226.055 30.8598ZM238.924 37.7H237.655C234.136 37.7 232.091 36.2195 232.091 30.9V25.4195H230.905C229.8 25.4195 228.819 24.4598 228.819 23.3805C228.819 22.2195 229.8 21.3 230.905 21.3H232.091V17.0598C232.091 15.8195 233.114 14.7793 234.383 14.7793C235.65 14.7793 236.715 15.8195 236.715 17.0598V21.3H238.637C239.742 21.3 240.724 22.2195 240.724 23.3805C240.724 24.4598 239.742 25.4195 238.637 25.4195H236.715V30.0195C236.715 33.0598 236.878 33.7 238.269 33.7H238.924C240.028 33.7 240.969 34.5805 240.969 35.7C240.969 36.7805 240.028 37.7 238.924 37.7ZM261.325 16.4598C261.938 16.8195 262.471 17.6195 262.471 18.3402C262.471 19.5 261.448 20.4598 260.302 20.4598C260.016 20.4598 259.728 20.3805 259.484 20.3C258.133 19.3402 256.415 18.7 254.615 18.7C250.361 18.7 247.414 22.0598 247.414 26.2195C247.414 30.3805 250.36 33.7 254.615 33.7C256.742 33.7 258.624 32.8598 260.056 31.5805C260.426 31.3244 260.869 31.1846 261.325 31.1805C262.471 31.1805 263.369 32.0598 263.369 33.1805C263.369 33.9 262.92 34.5402 262.348 34.9C260.302 36.5805 257.519 37.7 254.655 37.7C248.11 37.7 242.792 32.5 242.792 26.1C242.792 19.7 248.109 14.5 254.655 14.5C257.112 14.5 259.442 15.2195 261.325 16.4598ZM273.048 33.7C275.135 33.7 276.893 31.9 276.893 29.4598C276.893 27.0207 275.093 25.4195 273.047 25.4195C271.002 25.4195 269.365 27.0598 269.365 29.4598C269.365 31.8195 271.002 33.7 273.047 33.7H273.048ZM277.956 35.7402L277.875 35.2195C276.975 36.939 274.112 37.7 272.27 37.7C267.933 37.7 264.742 33.9 264.742 29.4195C264.742 24.9402 268.016 21.3 272.515 21.3C273.292 21.3 275.87 21.5 277.875 23.7805L277.956 23.2598C277.956 22.3 278.734 21.5 279.716 21.5C280.697 21.5 281.516 22.3 281.516 23.2598V35.7402C281.516 36.7 280.697 37.5 279.716 37.5C278.734 37.5 277.956 36.7 277.956 35.7402ZM294.221 33.7C296.267 33.7 297.902 31.8195 297.902 29.4598C297.902 27.0598 296.267 25.4195 294.221 25.4195C292.175 25.4195 290.375 27.0195 290.375 29.4598C290.375 31.9 292.135 33.7 294.221 33.7ZM290.375 36.3805V42.0598C290.375 43.3 289.311 44.3402 288.043 44.3402C286.776 44.3402 285.751 43.3 285.751 42.0598V23.2598C285.751 22.3 286.57 21.5 287.553 21.5C288.534 21.5 289.313 22.3 289.313 23.4195C291.029 21.7 293.158 21.3 294.753 21.3C299.253 21.3 302.526 24.9402 302.526 29.4195C302.526 33.9 299.336 37.7 294.998 37.7C293.649 37.7 291.643 37.3 290.375 36.3805Z" fill="black" fill-opacity="0.85"/>
</g>
<defs>
<clipPath id="clip0_87_9663">
<rect width="302.577" height="50" fill="white" transform="translate(0.67157)"/>
</clipPath>
</defs>
</svg>
