<svg width="156" height="51" viewBox="0 0 156 51" fill="none" xmlns="http://www.w3.org/2000/svg">
<path d="M24.704 27.1638L24.3341 26.7845C24.0501 26.5 23.5683 26.6983 23.5683 27.1035V32.4742C23.5683 32.7242 23.7748 32.9224 24.0157 32.9224H29.3759C29.7717 32.9224 29.9782 32.4397 29.6942 32.1552C29.5222 31.9828 29.5222 31.6983 29.6942 31.5173L35.39 25.7931C35.562 25.6207 35.562 25.3362 35.39 25.1552L34.8737 24.638C34.5898 24.3535 34.7963 23.8707 35.1921 23.8707H40.5436C40.7931 23.8707 40.991 24.069 40.991 24.319V29.6897C40.991 30.0862 40.5092 30.2931 40.2253 30.0087L39.8639 29.6466C39.6832 29.4656 39.4079 29.4656 39.2273 29.6466L29.6168 39.2673C29.4447 39.4397 29.1608 39.4397 28.9801 39.2673L17.2273 27.4828C17.0553 27.3104 17.0466 27.0259 17.2273 26.8449L33.4971 10.5431C33.6692 10.3707 33.6692 10.0776 33.4971 9.90521L29.6684 6.06901C29.4963 5.89659 29.2124 5.89659 29.0317 6.06901L7.97824 27.1811C7.80616 27.3535 7.80616 27.6466 7.97824 27.819L29.0403 48.9224C29.2124 49.0949 29.505 49.0949 29.677 48.9224L50.7391 27.819C50.9112 27.6466 50.9112 27.3621 50.7391 27.1811L38.3497 14.7673C38.1776 14.5949 37.8937 14.5949 37.713 14.7673L25.3407 27.1638C25.1686 27.3362 24.8847 27.3362 24.704 27.1638ZM121.927 32.5C121.385 32.5 120.912 32.6983 120.525 33.0862C120.137 33.4828 119.94 33.9397 119.94 34.4742C119.94 35.2931 120.352 35.9311 121.178 36.3793C122.082 36.6293 122.805 36.4656 123.347 35.9052C123.742 35.5087 123.932 35.0345 123.932 34.4828C123.932 33.9224 123.734 33.4569 123.347 33.0776C122.951 32.6983 122.486 32.5 121.927 32.5ZM89.9209 17.3276H88.4324C87.7871 17.3276 87.2709 17.8449 87.2709 18.4914V19.319C85.6878 17.6725 83.9068 16.8535 81.9021 16.8535C79.5963 16.8535 77.669 17.7156 76.1376 19.4311C74.5975 21.1466 73.8317 23.2931 73.8317 25.8621C73.8317 28.4828 74.5975 30.6638 76.129 32.4225C77.6776 34.138 79.6393 35 82.0054 35C83.881 35 85.6362 34.2328 87.2623 32.7069V34.3449C87.2623 35.138 87.9076 35.7931 88.6991 35.7931H91.2372V18.6638C91.2458 17.9311 90.6522 17.3276 89.9209 17.3276ZM86.1696 29.9311C85.2662 30.9397 84.0789 31.4483 82.6162 31.4483C81.2396 31.4483 80.1039 30.9225 79.2005 29.8793C78.3229 28.8449 77.8755 27.5 77.8755 25.8621C77.8755 24.3276 78.3315 23.0259 79.2349 21.9828C80.1469 20.9483 81.2912 20.4311 82.6506 20.4311C84.0961 20.4311 85.2662 20.9397 86.1696 21.9656C87.073 23.0087 87.529 24.3362 87.529 25.9483C87.5204 27.5604 87.0644 28.888 86.1696 29.9311ZM73.8317 20.2242V18.5259C73.8317 17.8621 73.2983 17.3276 72.6358 17.3276H71.0699C70.4074 17.3276 69.874 17.8621 69.874 18.5259V19.2673C68.4458 17.6552 66.6476 16.8449 64.488 16.8449C62.0273 16.8449 60.0398 17.7759 58.5428 19.6293C57.149 21.3793 56.4521 23.5087 56.4521 26.0087C56.4521 28.5862 57.2006 30.7328 58.7063 32.4397C60.1947 34.138 62.1048 34.9742 64.445 34.9742C66.4927 34.9742 68.3081 34.1725 69.8826 32.5604V34.9569C69.8826 38.5173 68.4372 40.3018 65.5377 40.3018C63.9632 40.3018 62.7673 39.7673 61.9499 38.6983C61.7434 38.4311 61.5627 38.0862 61.4251 37.6811C61.2272 37.1121 60.6937 36.7414 60.1001 36.7414H58.603C57.8459 36.7414 57.2866 37.4656 57.4759 38.1983C57.8889 39.7587 58.6804 41.0259 59.8592 42.0087C61.339 43.2414 63.2233 43.8621 65.5033 43.8621C68.2135 43.8621 70.3386 42.9656 71.8873 41.1811C72.7046 40.25 73.2553 39.138 73.5392 37.8449C73.6339 37.3793 73.7113 36.8276 73.7629 36.2156C73.8145 35.6035 73.8403 34.888 73.8403 34.0776V31.5862C72.7305 29.9828 72.1712 28.0776 72.1712 25.8449C72.1626 23.6725 72.7219 21.8018 73.8317 20.2242ZM68.8157 29.7931C67.9381 30.8966 66.7422 31.4483 65.2279 31.4483C63.7137 31.4483 62.5263 30.9052 61.6746 29.8104C60.8916 28.8104 60.4958 27.5345 60.4958 25.9656C60.4958 24.3793 60.8916 23.0862 61.6746 22.0862C62.5436 20.9742 63.7309 20.4138 65.2279 20.4138C66.639 20.4138 67.7919 20.9225 68.6953 21.9483C69.5901 22.9483 70.0375 24.2845 70.0375 25.9483C70.0289 27.5087 69.6245 28.7931 68.8157 29.7931ZM106.741 17.3449V17.3276H98.5333V12.2931C98.5333 11.6466 98.0084 11.1207 97.3631 11.1207H95.7628C95.1089 11.1207 94.5755 11.6552 94.5755 12.3104V17.3276H92.8892V21.0259H94.5755V35.7759H96.8297C97.7675 35.7759 98.5247 35.0173 98.5333 34.0776V34.069V21.0345H102.594C102.913 20.4225 103.308 19.8535 103.764 19.3362C104.599 18.4138 105.597 17.75 106.741 17.3449ZM126.943 11.1207C126.237 11.1207 125.635 11.3707 125.136 11.8794C124.637 12.388 124.379 12.9828 124.379 13.6811C124.379 14.4138 124.629 15.0259 125.136 15.5345C125.644 16.0431 126.255 16.2931 126.969 16.2931C127.683 16.2931 128.285 16.0431 128.776 15.5345C129.283 15.0259 129.533 14.4225 129.533 13.6983C129.533 12.9828 129.283 12.3794 128.776 11.888C128.268 11.3707 127.657 11.1207 126.943 11.1207ZM127.743 19.2759H126.306C125.566 19.2759 124.973 19.8707 124.973 20.6121V33.2069C125.274 33.5604 125.42 33.9828 125.42 34.4656C125.42 34.9483 125.274 35.3793 124.973 35.7328V36.4397H127.519C128.302 36.4397 128.93 35.8018 128.93 35.0259V20.4569C128.93 19.8018 128.397 19.2759 127.743 19.2759ZM146.353 21.7069C144.572 19.9569 142.395 19.0776 139.84 19.0776C137.293 19.0776 135.134 19.9483 133.361 21.6897C131.589 23.4311 130.703 25.5345 130.703 28.0173C130.703 30.6466 131.572 32.8362 133.31 34.5776C135.048 36.3362 137.199 37.2242 139.763 37.2242C142.352 37.2242 144.546 36.3621 146.327 34.6293C148.091 32.888 148.986 30.7328 148.986 28.1552C148.986 25.6035 148.108 23.4569 146.353 21.7069ZM143.548 32.1811C142.628 33.1811 141.389 33.6725 139.84 33.6725C138.3 33.6725 137.061 33.1724 136.123 32.1552C135.211 31.1552 134.747 29.7931 134.747 28.0862C134.747 26.4914 135.22 25.1811 136.158 24.1725C137.095 23.1638 138.317 22.6552 139.832 22.6552C141.363 22.6552 142.602 23.1638 143.54 24.1725C144.469 25.1725 144.934 26.5087 144.934 28.1724C144.942 29.8449 144.478 31.1724 143.548 32.1811Z" fill="#DE5959"/>
<path d="M108.212 31.4828C107.395 30.6553 106.939 29.5259 106.836 28.1208H118.184C118.701 28.1208 119.131 27.707 119.139 27.1897C119.139 24.3535 118.408 22.138 116.963 20.5432C115.491 18.9311 113.495 18.1294 110.974 18.1294C108.479 18.1294 106.475 18.957 104.96 20.6122C103.455 22.2932 102.706 24.4915 102.706 27.207C102.706 29.9484 103.48 32.1466 105.029 33.8018C106.113 34.957 107.438 35.6984 109.004 36.0432C109.667 36.1984 110.346 36.2759 111.035 36.2673C113.857 36.3277 116.309 36.388 119.122 36.4397V36.0259C118.778 35.6466 118.606 35.1984 118.606 34.6725C118.606 34.1553 118.787 33.7156 119.139 33.3363V32.8363C116.911 32.7846 111.525 32.7242 111.31 32.7242C110.062 32.7242 109.021 32.3104 108.212 31.4828ZM107.662 23.5518C107.911 23.1639 108.204 22.8363 108.548 22.5604C108.892 22.2846 109.279 22.069 109.701 21.9225C110.123 21.7759 110.579 21.6984 111.06 21.6984C113.168 21.6984 114.502 22.7587 115.053 24.8708H107.094C107.232 24.3794 107.421 23.9397 107.662 23.5518Z" fill="#DE5959"/>
</svg>
