<svg width="183" height="51" viewBox="0 0 183 51" fill="none" xmlns="http://www.w3.org/2000/svg">
<g clip-path="url(#clip0_87_9695)">
<path fill-rule="evenodd" clip-rule="evenodd" d="M63.3454 31.098L61.104 27.2262H57.8222V31.098H55.8917V19.4723H61.7044C62.4131 19.4667 63.1096 19.6556 63.7182 20.0185C64.3269 20.3815 64.8241 20.9046 65.1561 21.5306C65.4879 22.1567 65.6416 22.8618 65.6004 23.5693C65.559 24.2767 65.3244 24.9593 64.922 25.5424C64.5017 26.1611 63.9087 26.6423 63.2167 26.9261L65.6084 31.098H63.3454ZM61.7044 21.4456H57.8222V25.3065H61.7044C61.9582 25.3064 62.2091 25.254 62.4417 25.1524C62.6741 25.0511 62.8832 24.9026 63.0558 24.7167C63.3231 24.4453 63.5046 24.1014 63.5778 23.7276C63.651 23.3538 63.6126 22.9667 63.4675 22.6146C63.3222 22.2624 63.0767 21.9608 62.7613 21.7471C62.446 21.5337 62.0746 21.4176 61.6938 21.4135L61.7044 21.4456ZM82.3714 19.4723L76.5478 31.098H78.7143L82.3714 23.8158L86.0179 31.098H88.1843L82.3714 19.4723ZM106.91 19.4723H104.443L101.129 23.7621L97.8258 19.4723H95.3484L100.207 25.6712V31.098H102.137V25.5747L106.91 19.4723ZM116.798 19.4723H120.67C122.208 19.4835 123.68 20.0996 124.767 21.1873C125.855 22.2749 126.471 23.747 126.482 25.2852C126.474 26.8243 125.859 28.2977 124.771 29.3861C123.682 30.4744 122.209 31.0896 120.67 31.098H116.798V19.4723ZM120.67 29.1246C121.696 29.1218 122.679 28.7129 123.404 27.9874C124.13 27.262 124.538 26.279 124.541 25.2529C124.53 24.2296 124.119 23.2512 123.395 22.5276C122.671 21.804 121.693 21.3924 120.67 21.3812H118.718V29.1246H120.67ZM139.385 19.4723H137.454V31.098H139.385V19.4723ZM160.041 26.2396C160.052 26.8791 159.931 27.514 159.685 28.1046C159.44 28.695 159.076 29.2287 158.614 29.6715C157.937 30.3491 157.074 30.8103 156.135 30.9968C155.194 31.1832 154.221 31.0865 153.337 30.719C152.452 30.3514 151.697 29.7294 151.166 28.932C150.635 28.1346 150.353 27.1974 150.356 26.2396V19.4723H152.286V26.2396C152.286 27.0105 152.593 27.7497 153.138 28.2949C153.682 28.8399 154.421 29.1461 155.193 29.1461C155.964 29.1461 156.703 28.8399 157.249 28.2949C157.793 27.7497 158.099 27.0105 158.099 26.2396V19.4723H160.041V26.2396ZM172.943 31.098V24.1483L176.835 28.0306L180.708 24.1483V31.098H182.67V19.4723L176.835 25.2852L171.023 19.4723V31.098H172.943Z" fill="black"/>
<path d="M41.5525 19.1076V36.3961L22.3228 47.4962L3.08252 36.3961V14.1849L22.3228 3.07395L37.1017 11.6109L39.3325 10.324L22.3228 0.5L0.851746 12.8979V37.683L22.3228 50.0809L43.794 37.683V17.8206L41.5525 19.1076Z" fill="url(#paint0_linear_87_9695)"/>
<path d="M16.939 36.4068H13.7216V25.6176H24.4465C25.4611 25.6063 26.4305 25.196 27.1451 24.4754C27.8596 23.755 28.2618 22.7821 28.2645 21.7673C28.2702 21.2656 28.1734 20.7679 27.9798 20.305C27.786 19.842 27.4998 19.4236 27.1383 19.0754C26.7886 18.716 26.3699 18.431 25.9074 18.2376C25.4448 18.0439 24.9478 17.9459 24.4465 17.9492H13.7216V14.6675H24.4571C26.3366 14.6787 28.136 15.4304 29.4651 16.7594C30.794 18.0885 31.5457 19.8879 31.5569 21.7673C31.5684 23.206 31.1298 24.6123 30.3022 25.7891C29.5405 26.9151 28.4672 27.7947 27.2134 28.3201C25.9719 28.7139 24.6763 28.9094 23.3739 28.8994H16.939V36.4068Z" fill="url(#paint1_linear_87_9695)"/>
<path d="M31.4819 36.1386H27.7281L24.8325 31.0872C25.9781 31.0171 27.1081 30.786 28.1893 30.4009L31.4819 36.1386Z" fill="url(#paint2_linear_87_9695)"/>
<path d="M39.311 15.5147L41.531 16.7481L43.7511 15.5147V12.9086L41.531 11.6216L39.311 12.9086V15.5147Z" fill="url(#paint3_linear_87_9695)"/>
</g>
<defs>
<linearGradient id="paint0_linear_87_9695" x1="43.756" y1="12.9115" x2="-1.77456" y2="31.1191" gradientUnits="userSpaceOnUse">
<stop stop-color="#C200FB"/>
<stop offset="0.489658" stop-color="#3772FF"/>
<stop offset="0.489758" stop-color="#3773FE"/>
<stop offset="1" stop-color="#5AC4BE"/>
</linearGradient>
<linearGradient id="paint1_linear_87_9695" x1="43.756" y1="12.9115" x2="-1.77455" y2="31.1191" gradientUnits="userSpaceOnUse">
<stop stop-color="#C200FB"/>
<stop offset="0.489658" stop-color="#3772FF"/>
<stop offset="0.489758" stop-color="#3773FE"/>
<stop offset="1" stop-color="#5AC4BE"/>
</linearGradient>
<linearGradient id="paint2_linear_87_9695" x1="43.756" y1="12.9115" x2="-1.77455" y2="31.1191" gradientUnits="userSpaceOnUse">
<stop stop-color="#C200FB"/>
<stop offset="0.489658" stop-color="#3772FF"/>
<stop offset="0.489758" stop-color="#3773FE"/>
<stop offset="1" stop-color="#5AC4BE"/>
</linearGradient>
<linearGradient id="paint3_linear_87_9695" x1="43.756" y1="12.9115" x2="-1.77457" y2="31.119" gradientUnits="userSpaceOnUse">
<stop stop-color="#C200FB"/>
<stop offset="0.489658" stop-color="#3772FF"/>
<stop offset="0.489758" stop-color="#3773FE"/>
<stop offset="1" stop-color="#5AC4BE"/>
</linearGradient>
<clipPath id="clip0_87_9695">
<rect width="181.818" height="50" fill="white" transform="translate(0.851746 0.5)"/>
</clipPath>
</defs>
</svg>
