<svg width="177" height="51" viewBox="0 -7 177 51" fill="none" xmlns="http://www.w3.org/2000/svg">
<g clip-path="url(#clip0_87_9666)">
<path d="M33.223 5.567L30.4993 8.246C33.281 11.001 35.0195 14.801 35.0195 19C35.0195 23.0313 33.3914 26.8975 30.4932 29.748C27.5951 32.5986 23.6644 34.2 19.5659 34.2C15.4673 34.2 11.5367 32.5986 8.63856 29.748C5.74043 26.8975 4.1123 23.0313 4.1123 19C4.1123 11.248 10.004 4.864 17.6342 3.933V7.771C12.1482 8.683 7.9757 13.357 7.9757 19C7.9757 22.0235 9.19679 24.9231 11.3704 27.061C13.544 29.1989 16.492 30.4 19.5659 30.4C22.6398 30.4 25.5878 29.1989 27.7614 27.061C29.935 24.9231 31.1561 22.0235 31.1561 19C31.1561 15.846 29.8619 12.996 27.7563 10.944L25.0326 13.623C26.4234 15.01 27.2927 16.91 27.2927 19C27.2927 21.0156 26.4786 22.9487 25.0296 24.374C23.5805 25.7993 21.6152 26.6 19.5659 26.6C17.5166 26.6 15.5513 25.7993 14.1022 24.374C12.6532 22.9487 11.8391 21.0156 11.8391 19C11.8391 15.466 14.3117 12.521 17.6342 11.666V15.732C16.4752 16.397 15.7025 17.594 15.7025 19C15.7025 20.0078 16.1095 20.9744 16.8341 21.687C17.5586 22.3996 18.5413 22.8 19.5659 22.8C20.5905 22.8 21.5732 22.3996 22.2977 21.687C23.0223 20.9744 23.4293 20.0078 23.4293 19C23.4293 17.594 22.6566 16.378 21.4976 15.732V0H19.5659C17.0292 0 14.5172 0.491451 12.1736 1.44629C9.82997 2.40113 7.70046 3.80067 5.90672 5.56497C2.28408 9.12817 0.248901 13.9609 0.248901 19C0.248901 24.0391 2.28408 28.8718 5.90672 32.4349C7.70046 34.1994 9.82997 35.5987 12.1736 36.5538C14.5172 37.5085 17.0292 38 19.5659 38C24.6891 38 29.6024 35.9984 33.2249 32.4349C36.8478 28.8718 38.8829 24.0391 38.8829 19C38.8829 13.756 36.7194 9.006 33.223 5.567Z" fill="url(#paint0_linear_87_9666)"/>
<path d="M58.7459 35.1831C55.3461 35.1831 52.6881 34.2559 50.7718 32.4015C48.8556 30.5167 47.8975 27.9023 47.8975 24.5583H54.2025C54.2025 26.1391 54.6043 27.3855 55.4079 28.2975C56.2424 29.1791 57.386 29.6199 58.8386 29.6199H63.9847C65.3446 29.6199 66.4418 29.3463 67.2763 28.7991C68.1417 28.2215 68.5744 27.4615 68.5744 26.5191V24.9687C68.5744 23.4791 67.4617 22.5519 65.2364 22.1871L56.706 20.7735C53.9244 20.3175 51.8072 19.4511 50.3546 18.1743C48.9329 16.8671 48.222 15.2103 48.222 13.2038V10.6502C48.222 9.03905 48.6547 7.62545 49.5201 6.40945C50.4164 5.16305 51.6681 4.20545 53.2753 3.53665C54.9134 2.86785 56.7987 2.53345 58.9313 2.53345H64.1701C66.1791 2.53345 67.9562 2.94385 69.5016 3.76465C71.047 4.58545 72.2369 5.74065 73.0714 7.23025C73.9368 8.68945 74.3695 10.3918 74.3695 12.3375H68.0644C68.0644 11.0606 67.709 10.0422 66.9981 9.28225C66.2872 8.49185 65.3446 8.09665 64.1701 8.09665H58.9313C57.6332 8.09665 56.5824 8.37025 55.7788 8.91745C55.0061 9.46465 54.6198 10.1942 54.6198 11.1062V12.3375C54.6198 13.8575 55.6861 14.7999 57.8187 15.1647L66.3027 16.6239C69.1153 17.1103 71.2633 17.9767 72.7469 19.2231C74.2304 20.4391 74.9722 22.0199 74.9722 23.9655V26.9751C74.9722 28.5863 74.5086 30.0151 73.5813 31.2615C72.685 32.5079 71.4178 33.4807 69.7798 34.1799C68.1417 34.8487 66.2409 35.1831 64.0774 35.1831H58.7459Z" fill="black"/>
<path d="M88.1966 35.183C86.2495 35.183 84.5187 34.8182 83.0042 34.0886C81.5207 33.3286 80.3617 32.2646 79.5272 30.8966C78.7236 29.5286 78.3218 27.9478 78.3218 26.1542V20.819C78.3218 19.0254 78.739 17.4446 79.5735 16.0766C80.408 14.6782 81.567 13.599 83.0506 12.839C84.565 12.079 86.2958 11.699 88.243 11.699H92.4155C94.3626 11.699 96.078 12.079 97.5615 12.839C99.076 13.599 100.25 14.6782 101.085 16.0766C101.919 17.4446 102.337 19.0254 102.337 20.819V26.1542C102.337 27.9478 101.919 29.5286 101.085 30.8966C100.25 32.2646 99.076 33.3286 97.5615 34.0886C96.078 34.8182 94.3472 35.183 92.3691 35.183H88.1966ZM92.2764 29.8478C93.4199 29.8478 94.3317 29.4678 95.0117 28.7078C95.6916 27.9174 96.0316 26.899 96.0316 25.6526V21.2294C96.0316 19.983 95.6916 18.9798 95.0117 18.2198C94.3317 17.4294 93.4354 17.0342 92.3227 17.0342H88.3357C87.2231 17.0342 86.3267 17.4294 85.6468 18.2198C84.9668 18.9798 84.6268 19.983 84.6268 21.2294V25.6526C84.6268 26.899 84.9668 27.9174 85.6468 28.7078C86.3267 29.4678 87.2076 29.8478 88.2893 29.8478H92.2764Z" fill="black"/>
<path d="M106.776 12.0638H112.617V14.7998C113.297 13.8574 114.178 13.1126 115.26 12.5654C116.341 11.9878 117.423 11.699 118.505 11.699H121.287C123.759 11.699 125.737 12.459 127.221 13.979C128.735 15.499 129.492 17.5054 129.492 19.9982V34.8182H123.187V20.2262C123.187 19.2838 122.925 18.5238 122.399 17.9462C121.905 17.3686 121.256 17.0798 120.452 17.0798H117.67C116.589 17.0798 115.615 17.475 114.75 18.2654C113.915 19.0254 113.359 20.0286 113.081 21.275V34.8182H106.776V12.0638Z" fill="black"/>
<path d="M141.899 35.183C139.488 35.183 137.541 34.5902 136.058 33.4046C134.574 32.219 133.832 30.6534 133.832 28.7078V27.0206C133.832 25.1054 134.605 23.5702 136.15 22.415C137.696 21.2294 139.736 20.6366 142.27 20.6366H145.098C145.902 20.6366 146.767 20.743 147.694 20.9558C148.621 21.1686 149.471 21.4574 150.244 21.8222V19.451C150.244 18.691 149.981 18.083 149.456 17.627C148.961 17.1406 148.297 16.8974 147.462 16.8974H143.475C142.61 16.8974 141.915 17.095 141.389 17.4902C140.864 17.8854 140.601 18.4174 140.601 19.0862H134.481C134.481 16.867 135.3 15.0886 136.939 13.751C138.608 12.383 140.787 11.699 143.475 11.699H147.462C150.182 11.699 152.377 12.4134 154.046 13.8422C155.715 15.2406 156.549 17.1102 156.549 19.451V34.8182H150.708V32.0822C149.966 33.0246 149.054 33.7846 147.972 34.3622C146.891 34.9094 145.824 35.183 144.774 35.183H141.899ZM145.237 30.4406C146.381 30.4406 147.401 30.1518 148.297 29.5742C149.193 28.9966 149.842 28.2214 150.244 27.2486V26.4734C149.75 26.1086 149.054 25.8198 148.158 25.607C147.292 25.3942 146.365 25.2878 145.376 25.2878H142.455C141.714 25.2878 141.111 25.4702 140.647 25.835C140.184 26.1998 139.952 26.6862 139.952 27.2942V28.4798C139.952 29.0574 140.199 29.5286 140.694 29.8934C141.219 30.2582 141.899 30.4406 142.734 30.4406H145.237Z" fill="black"/>
<path d="M161.648 12.0636H167.489V14.982C168.077 14.1004 168.911 13.386 169.993 12.8388C171.105 12.2612 172.265 11.9724 173.47 11.9724H176.622V17.3532H173.47C171.832 17.3532 170.503 17.8396 169.483 18.8124C168.463 19.7852 167.953 21.0316 167.953 22.5516V34.818H161.648V12.0636Z" fill="black"/>
</g>
<defs>
<linearGradient id="paint0_linear_87_9666" x1="32.4005" y1="0.0399855" x2="-1.34881" y2="34.6045" gradientUnits="userSpaceOnUse">
<stop offset="0.0416667" stop-color="#00F299"/>
<stop offset="0.947917" stop-color="#D119FF"/>
</linearGradient>
<clipPath id="clip0_87_9666">
<rect width="176.429" height="38" fill="white" transform="translate(0.248901)"/>
</clipPath>
</defs>
</svg>
