<svg width="139" height="51" viewBox="0 0 139 51" fill="none" xmlns="http://www.w3.org/2000/svg">
<g clip-path="url(#clip0_87_9673)">
<path d="M50.7638 25C50.7638 11.1929 39.5517 0 25.7207 0C11.8897 0 0.67749 11.1929 0.67749 25C0.67749 38.8071 11.8897 50 25.7207 50C39.5517 50 50.7638 38.8071 50.7638 25Z" fill="#0075FF"/>
<path d="M24.7118 40.7519C25.2703 41.3044 26.1705 41.3037 26.7281 40.7503L29.3159 38.1822C29.8787 37.6236 29.8787 36.7145 29.3159 36.156L26.7281 33.5877C26.1706 33.0343 25.2702 33.0336 24.7118 33.5861L22.116 36.1544C21.5512 36.7133 21.5512 37.6248 22.1161 38.1837L24.7118 40.7519ZM39.183 26.4111C39.7418 26.9653 40.6442 26.9644 41.2019 26.4091L41.7314 25.8821C42.2931 25.3229 42.292 24.4143 41.7289 23.8565L26.7287 8.99847C26.1707 8.44582 25.2708 8.44582 24.7128 8.99847L9.71258 23.8565C9.14946 24.4143 9.14832 25.3229 9.71 25.8821L10.2394 26.4091C10.7972 26.9643 11.6996 26.9653 12.2584 26.4111L24.7122 14.0619C25.2703 13.5085 26.1712 13.5085 26.7292 14.0619L39.183 26.4111ZM32.9765 32.5611C33.5353 33.1155 34.4379 33.1147 34.9957 32.5593L35.5253 32.0321C36.0868 31.4731 36.0859 30.5649 35.5233 30.007L26.7286 21.2863C26.1707 20.7332 25.2704 20.7329 24.7122 21.2857L15.9082 30.0042C15.3439 30.5631 15.3439 31.474 15.9083 32.0328L16.4458 32.565C17.0042 33.1176 17.9046 33.1172 18.4623 32.5639L24.712 26.3636C25.2701 25.8099 26.1714 25.8099 26.7295 26.3636L32.9765 32.5611Z" fill="black"/>
<path d="M74.2415 33.4844H75.4457C75.4285 32.3697 74.5577 31.6001 73.2347 31.6001C71.9324 31.6001 70.9779 32.3575 70.9837 33.4935C70.9808 34.4158 71.5988 34.9442 72.6029 35.1977L73.2498 35.3687C73.8966 35.5336 74.2565 35.729 74.2594 36.1505C74.2565 36.6086 73.8444 36.9201 73.2061 36.9201C72.5536 36.9201 72.0833 36.6024 72.0426 35.9764H70.827C70.8589 37.3293 71.7787 38.0287 73.2204 38.0287C74.6715 38.0287 75.5244 37.2987 75.5273 36.1535C75.5244 35.1122 74.7788 34.5594 73.7456 34.315L73.2119 34.1807C72.6952 34.0555 72.2631 33.8539 72.2717 33.405C72.2717 33.0019 72.6115 32.7056 73.2262 32.7056C73.8272 32.7056 74.1957 32.9927 74.2415 33.4844Z" fill="black"/>
<path d="M76.0238 31.6855L78.1911 35.729V37.9401H79.4383V35.729L81.6056 31.6855H80.1989L78.8437 34.3791H78.7857L77.4312 31.6855H76.0238Z" fill="black"/>
<path d="M82.2918 31.6855V37.9401H83.5103V33.8538H83.5597L85.0974 37.9095H85.9274L87.465 33.8691H87.5144V37.9401H88.7329V31.6855H87.1838L85.5474 35.8878H85.4773L83.8416 31.6855H82.2918Z" fill="black"/>
<path d="M89.7676 31.6855V37.9401H90.9861V33.8538H91.0355L92.5731 37.9095H93.4031L94.9408 33.8691H94.9902V37.9401H96.2087V31.6855H94.6596L93.0232 35.8878H92.9531L91.3174 31.6855H89.7676Z" fill="black"/>
<path d="M97.2433 37.9401H101.259V36.8498H98.4997V35.3564H101.041V34.2661H98.4997V32.7758H101.247V31.6855H97.2433V37.9401Z" fill="black"/>
<path d="M102.02 32.7758H103.839V37.9401H105.08V32.7758H106.9V31.6855H102.02V32.7758Z" fill="black"/>
<path d="M107.703 37.9401H108.959V35.7229H109.877L111.002 37.9401H112.389L111.127 35.5091C111.803 35.2037 112.177 34.5838 112.177 33.7286C112.177 32.4857 111.396 31.6855 110.048 31.6855H107.703V37.9401ZM108.959 34.6601V32.7666H109.806C110.532 32.7666 110.883 33.1056 110.883 33.7286C110.883 34.3486 110.532 34.6601 109.813 34.6601H108.959Z" fill="black"/>
<path d="M112.469 31.6855L114.637 35.729V37.9401H115.884V35.729L118.051 31.6855H116.644L115.289 34.3791H115.231L113.876 31.6855H112.469Z" fill="black"/>
<path d="M67.3124 29.8C71.3994 29.8 74.4905 28.0514 74.4905 24.4171C74.4905 20.9885 72.0176 19.8571 67.9993 19.2743C65.3204 18.8628 63.5688 18.28 63.5688 16.8057C63.5688 15.6057 64.8052 14.6114 66.9689 14.6114C69.6479 14.6114 70.4721 15.88 70.6782 17.4914H73.7006C73.3228 14.1657 70.9873 12.1428 66.9003 12.1428C62.7102 12.1428 60.4434 14.3714 60.4434 17.2857C60.4434 20.9885 64.187 21.88 66.9003 22.2228C69.9226 22.6 71.2621 23.1143 71.2621 24.6914C71.2621 26.1657 69.8196 27.3314 67.4498 27.3314C64.3587 27.3314 63.3284 25.48 63.1567 24.0742H60.0656C60.4434 27.5714 62.9506 29.8 67.3124 29.8Z" fill="black"/>
<path d="M79.7338 29.4572H83.0996L87.1523 17.0458L90.9302 29.4572H94.296L99.8255 12.4172H96.9406L92.6818 25.3429L88.8008 12.4172H85.7098L81.4854 25.3429L77.57 12.4172H74.582L79.7338 29.4572Z" fill="black"/>
<path d="M108.737 29.8C111.073 29.8 113.306 28.8057 114.782 27.2285V29.4571H117.701V12.4171H114.782V14.7485C113.237 13.1371 111.073 12.1428 108.737 12.1428C103.792 12.1428 99.842 16.0514 99.842 20.9543C99.842 25.8228 103.792 29.8 108.737 29.8ZM108.737 27.0228C105.407 27.0228 102.693 24.28 102.693 20.9543C102.693 17.6628 105.407 14.92 108.737 14.92C112.069 14.92 114.782 17.6628 114.782 20.9543C114.782 24.28 112.069 27.0228 108.737 27.0228Z" fill="black"/>
<path d="M120.485 35.3885H123.405V27.2285C124.882 28.8057 127.114 29.8 129.449 29.8C134.395 29.8 138.345 25.8228 138.345 20.9543C138.345 16.0514 134.395 12.1428 129.449 12.1428C127.114 12.1428 124.916 13.1371 123.405 14.7485V12.4171H120.485V35.3885ZM129.449 27.0228C126.118 27.0228 123.405 24.28 123.405 20.9543C123.405 17.6628 126.118 14.92 129.449 14.92C132.781 14.92 135.494 17.6628 135.494 20.9543C135.494 24.28 132.781 27.0228 129.449 27.0228Z" fill="black"/>
</g>
<defs>
<clipPath id="clip0_87_9673">
<rect width="138.095" height="50" fill="white" transform="translate(0.67749)"/>
</clipPath>
</defs>
</svg>
