<svg width="48" height="48" viewBox="0 0 48 48" fill="none" xmlns="http://www.w3.org/2000/svg">
<g clip-path="url(#clip0_73_9139)">
<path d="M0 24C0 10.7452 10.7452 0 24 0C37.2548 0 48 10.7452 48 24C48 37.2548 37.2548 48 24 48C10.7452 48 0 37.2548 0 24Z" fill="#F5F6F8"/>
<path d="M24.0375 9.59961L23.8445 10.2557V29.2946L24.0375 29.4873L32.8752 24.2634L24.0375 9.59961Z" fill="#343434"/>
<path d="M24.0377 9.59961L15.2 24.2634L24.0377 29.4874V20.2465V9.59961Z" fill="#8C8C8C"/>
<path d="M24.0375 31.1608L23.9287 31.2934V38.0755L24.0375 38.3933L32.8804 25.9395L24.0375 31.1608Z" fill="#3C3C3B"/>
<path d="M24.0377 38.3933V31.1608L15.2 25.9395L24.0377 38.3933Z" fill="#8C8C8C"/>
<path d="M24.0376 29.4877L32.8751 24.2639L24.0376 20.2469V29.4877Z" fill="#141414"/>
<path d="M15.2001 24.2639L24.0376 29.4877V20.2469L15.2001 24.2639Z" fill="#393939"/>
</g>
<defs>
<clipPath id="clip0_73_9139">
<rect width="48" height="48" fill="white"/>
</clipPath>
</defs>
</svg>
